<svg width="32" height="32" viewBox="0 0 32 32" fill="none" xmlns="http://www.w3.org/2000/svg">
<g id="37">
<g id="Group">
<path id="Vector" d="M15.8934 10.0267L16.68 11.8667C16.7334 12.0267 16.88 12.12 17.0267 12.1334L19.0267 12.32C19.4534 12.36 19.6134 12.88 19.3067 13.16L17.8 14.48C17.68 14.5867 17.6267 14.7467 17.6667 14.8934L18.1067 16.8534C18.2 17.2667 17.76 17.5867 17.3867 17.3734L15.6667 16.3467C15.5334 16.2667 15.36 16.2667 15.2267 16.3467L13.5067 17.3734C13.1467 17.5867 12.6934 17.2667 12.7867 16.8534L13.2267 14.8934C13.2667 14.7467 13.2134 14.5867 13.0934 14.48L11.5867 13.16C11.2667 12.88 11.44 12.36 11.8667 12.32L13.8667 12.1334C14.0267 12.12 14.16 12.0267 14.2267 11.88L15.0134 10.04C15.1734 9.64003 15.72 9.64003 15.8934 10.0267Z" stroke="#F0C932" stroke-width="1.33333" stroke-miterlimit="10" stroke-linecap="round" stroke-linejoin="round"/>
<path id="Vector_2" d="M24.5165 13.9262C24.5509 8.91879 20.5196 4.83157 15.5122 4.7971C10.5048 4.76264 6.4176 8.79399 6.38314 13.8014C6.34868 18.8088 10.38 22.896 15.3874 22.9304C20.3948 22.9649 24.482 18.9336 24.5165 13.9262Z" stroke="#F0C932" stroke-width="1.33333" stroke-miterlimit="10" stroke-linecap="round" stroke-linejoin="round"/>
<g id="Group_2">
<path id="Vector_3" d="M14.2133 22.84L11.96 28.5067L9.10665 25.24L4.79999 25.64L7.65332 18.4933" stroke="#F0C932" stroke-width="1.33333" stroke-miterlimit="10" stroke-linecap="round" stroke-linejoin="round"/>
<path id="Vector_4" d="M16.6667 22.84L18.9334 28.5067L21.7734 25.24L26.0934 25.64L23.2267 18.4933" stroke="#F0C932" stroke-width="1.33333" stroke-miterlimit="10" stroke-linecap="round" stroke-linejoin="round"/>
</g>
</g>
</g>
</svg>
